# xmcd CD database file
#
# Track frame offsets:
#	150
#	21012
#	30954
#	53928
#	74416
#	87140
#	102306
#	118146
#	129407
#	146727
#	161678
#	183017
#	199075
#	213626
#	227751
#	242883
#	262355
#	279423
#	296084
#	307263
#
# Disc length: 4356 seconds
#
# Revision: 1
# Processed by: cddbd v1.5.2PL0 Copyright (c) Steve Scherf et al.
# Submitted via: CDex 1.51
#
DISCID=33110214
DTITLE=Lisa Ono - the very best of Lisa Ono 
DYEAR=2010
DGENRE=Jazz
TTITLE0=You Are The Sunshine Of My Life
TTITLE1=Samba De Verao
TTITLE2=Girl From Ipanema
TTITLE3=Jambalaya
TTITLE4=Balaozinho
TTITLE5=In The Mood/Edmund
TTITLE6=O Samba
TTITLE7=O Corso
TTITLE8=Samba De Enredo
TTITLE9=Meu Carnaval
TTITLE10=This Masquerade
TTITLE11=Quizas Quaizas Quizas
TTITLE12=Clea
TTITLE13=Sambou Sambou
TTITLE14=Desafinado
TTITLE15=C'est Si Bon
TTITLE16=O Sole Mio
TTITLE17=Derniere Valse
TTITLE18=Taiyo No Kodomotachi
TTITLE19=Moon River
EXTD=YEAR: 2010
EXTT0=
EXTT1=
EXTT2=
EXTT3=
EXTT4=
EXTT5=
EXTT6=
EXTT7=
EXTT8=
EXTT9=
EXTT10=
EXTT11=
EXTT12=
EXTT13=
EXTT14=
EXTT15=
EXTT16=
EXTT17=
EXTT18=
EXTT19=
PLAYORDER=
